<?xml version="1.0" standalone="no"?>
<!DOCTYPE svg PUBLIC "-//W3C//DTD SVG 20010904//EN"
 "http://www.w3.org/TR/2001/REC-SVG-20010904/DTD/svg10.dtd">
<svg version="1.0" xmlns="http://www.w3.org/2000/svg"
 width="300.000000pt" height="146.000000pt" viewBox="0 0 300.000000 146.000000"
 preserveAspectRatio="xMidYMid meet">
<metadata>
Created by potrace 1.10, written by Peter Selinger 2001-2011
</metadata>
<g transform="translate(0.000000,146.000000) scale(0.100000,-0.100000)"
fill="#000000" stroke="none">
<path d="M2329 1427 c-133 -55 -279 -185 -689 -612 -122 -127 -199 -189 -249
-202 -14 -3 -64 1 -111 10 -150 29 -250 18 -225 -24 22 -34 168 -58 248 -40
41 10 54 9 90 -7 72 -32 161 -136 255 -299 71 -121 155 -173 260 -159 50 6
212 80 212 96 0 13 3 13 -66 -10 -183 -63 -278 -27 -392 150 -60 93 -146 189
-199 221 -18 11 -33 24 -33 27 0 4 14 13 31 21 83 37 247 189 490 456 275 302
375 378 497 379 73 0 119 -23 130 -66 9 -37 27 -47 36 -21 9 23 -22 64 -65 85
-50 26 -150 23 -220 -5z"/>
<path d="M2740 1287 c-79 -22 -174 -82 -303 -190 l-45 -38 -83 22 c-136 35
-239 15 -239 -47 0 -28 34 -54 61 -47 29 8 44 45 30 72 -11 20 -9 21 26 21 40
0 163 -28 176 -40 4 -4 -8 -21 -27 -38 -20 -17 -126 -128 -237 -247 -113 -122
-223 -231 -252 -250 -64 -42 -125 -59 -161 -45 -37 14 -33 -5 4 -20 43 -18
120 -6 183 27 60 32 172 141 343 332 65 73 137 154 159 178 l40 45 56 -22 56
-22 -102 -102 c-150 -151 -197 -225 -169 -265 21 -29 72 -27 145 5 72 33 79
51 9 24 -86 -34 -127 -20 -103 33 14 29 99 123 193 213 l75 72 78 -16 c64 -12
87 -13 132 -3 81 18 75 28 -15 23 -81 -5 -171 4 -169 16 1 15 137 124 181 145
47 22 61 37 33 37 -40 0 -129 -46 -195 -101 l-73 -61 -53 18 c-30 10 -54 21
-54 25 0 4 28 33 62 65 180 166 383 215 452 109 14 -21 20 -24 31 -15 21 18 7
39 -46 65 -59 30 -139 39 -199 22z"/>
<path d="M1995 941 c-73 -33 -265 -252 -265 -302 0 -63 103 -63 197 -2 37 24
21 26 -31 3 -26 -11 -61 -20 -77 -20 -73 0 -36 65 129 228 63 61 108 112 101
112 -8 0 -32 -9 -54 -19z"/>
<path d="M610 593 c0 -5 12 -20 26 -34 26 -24 27 -24 211 -22 102 1 188 4 190
7 2 2 -7 15 -19 29 -24 25 -25 26 -124 18 -100 -8 -206 -6 -256 5 -16 3 -28 2
-28 -3z"/>
<path d="M579 556 c-2 -2 -66 -9 -141 -16 -181 -15 -389 -15 -418 0 -32 17
-22 -8 14 -34 22 -17 46 -22 118 -25 87 -3 388 14 456 26 l32 5 -25 24 c-27
25 -29 26 -36 20z"/>
<path d="M1049 499 c-22 -22 -22 -24 -5 -27 32 -6 104 8 116 23 10 13 8 15
-16 15 -16 0 -39 3 -51 6 -14 4 -29 -2 -44 -17z"/>
<path d="M1298 515 c-3 -3 -22 -6 -42 -7 -27 -1 -43 -8 -58 -27 -18 -24 -18
-26 -3 -29 18 -4 101 24 122 41 7 5 10 13 7 18 -6 10 -18 12 -26 4z"/>
<path d="M730 494 c-162 -22 -457 -46 -525 -42 -69 3 -80 -5 -47 -35 36 -32
75 -31 502 14 112 12 116 14 143 46 16 18 27 32 25 32 -1 -1 -46 -8 -98 -15z"/>
<path d="M848 482 c-44 -37 -36 -46 33 -38 66 6 124 29 133 52 4 11 -8 13 -66
11 -59 -2 -77 -6 -100 -25z"/>
<path d="M1345 479 c-21 -26 -33 -59 -21 -59 15 0 75 32 90 49 20 22 22 20
-29 36 -8 2 -26 -10 -40 -26z"/>
<path d="M1100 450 c-14 -4 -41 -8 -61 -9 -28 -1 -47 -11 -80 -42 l-44 -40 59
6 c91 9 176 52 176 89 0 8 -19 6 -50 -4z"/>
<path d="M1421 434 c-20 -26 -29 -60 -13 -52 56 28 63 33 60 52 -5 30 -23 30
-47 0z"/>
<path d="M1250 436 c-14 -8 -41 -17 -60 -21 -37 -8 -135 -77 -144 -102 -15
-37 139 17 210 75 22 17 42 62 27 62 -4 -1 -19 -7 -33 -14z"/>
<path d="M905 419 c-16 -5 -70 -8 -120 -8 -49 1 -161 -9 -248 -20 -87 -12
-183 -21 -213 -21 -47 0 -55 -3 -52 -17 7 -36 68 -44 211 -28 349 39 457 61
457 95 0 6 -1 10 -2 9 -2 0 -16 -5 -33 -10z"/>
<path d="M1312 390 c-38 -9 -61 -27 -113 -93 -44 -56 -47 -67 -18 -67 21 0
125 92 161 143 21 29 20 29 -30 17z"/>
<path d="M1442 328 c-32 -83 -35 -98 -19 -98 31 0 55 43 54 98 0 28 -4 52 -8
52 -4 0 -16 -24 -27 -52z"/>
<path d="M1510 339 c0 -34 60 -105 68 -81 3 11 -54 112 -64 112 -2 0 -4 -14
-4 -31z"/>
<path d="M1375 351 c-23 -4 -35 -17 -52 -51 -24 -45 -31 -100 -13 -100 21 0
77 61 89 97 7 21 15 44 17 51 6 13 5 13 -41 3z"/>
<path d="M725 324 c-71 -13 -174 -26 -228 -30 l-98 -7 21 -21 c19 -19 31 -21
128 -20 108 2 359 40 436 67 50 17 62 40 14 26 -43 -12 -105 -12 -113 1 -7 12
2 13 -160 -16z"/>
<path d="M978 279 c-8 -5 -46 -13 -84 -18 -70 -10 -154 -46 -162 -70 -10 -30
199 10 294 55 36 18 37 19 14 22 -14 2 -30 8 -35 12 -6 5 -18 4 -27 -1z"/>
<path d="M1105 266 c-30 -14 -68 -50 -98 -96 -35 -52 -13 -53 66 -4 38 24 57
42 57 55 0 11 5 29 10 40 12 22 6 23 -35 5z"/>
<path d="M1492 248 c-16 -16 -16 -88 1 -88 6 0 23 16 36 35 23 35 24 36 5 50
-23 18 -27 18 -42 3z"/>
<path d="M1240 219 c-19 -16 -45 -32 -56 -35 -14 -4 -26 -20 -34 -45 -22 -65
-1 -68 62 -10 43 40 57 59 60 86 2 19 4 35 3 35 0 -1 -16 -14 -35 -31z"/>
<path d="M1342 180 c-27 -22 -34 -36 -39 -78 -3 -32 -2 -52 4 -52 6 0 28 26
50 57 34 49 38 61 29 79 -12 21 -12 21 -44 -6z"/>
<path d="M1436 187 c-14 -20 -19 -46 -20 -95 0 -105 20 -117 56 -35 18 40 18
46 5 61 -9 9 -17 35 -19 57 l-3 40 -19 -28z"/>
<path d="M1611 168 c-2 -91 78 -148 206 -148 105 0 126 16 30 22 -57 4 -86 11
-119 31 -45 26 -90 77 -108 119 -7 19 -9 15 -9 -24z"/>
<path d="M1546 158 c-20 -39 -20 -53 0 -72 27 -27 34 -18 34 44 0 67 -11 76
-34 28z"/>
</g>
</svg>
